<?xml version="1.0" standalone="no"?>
<!DOCTYPE svg PUBLIC "-//W3C//DTD SVG 20010904//EN"
 "http://www.w3.org/TR/2001/REC-SVG-20010904/DTD/svg10.dtd">
<svg version="1.0" xmlns="http://www.w3.org/2000/svg"
 width="500.000000pt" height="500.000000pt" viewBox="0 0 500.000000 500.000000"
 preserveAspectRatio="xMidYMid meet">

<g transform="translate(0.000000,500.000000) scale(0.100000,-0.100000)"
fill="#000000" stroke="none">
<path d="M2345 4900 c-167 -12 -402 -78 -560 -157 -292 -147 -541 -388 -702
-683 -37 -66 -106 -231 -100 -237 3 -2 19 32 36 76 35 84 129 248 200 346 49
67 231 251 284 287 158 108 206 136 302 183 587 281 1303 173 1775 -269 138
-129 251 -277 337 -441 23 -44 43 -74 43 -67 0 18 -81 170 -138 257 -259 398
-725 672 -1197 705 -142 10 -137 10 -280 0z"/>
<path d="M2425 4303 c-278 -28 -494 -129 -676 -313 -171 -174 -289 -444 -289
-661 l0 -59 -281 0 -281 0 7 -107 c13 -194 87 -436 189 -618 21 -38 49 -88 61
-110 21 -37 39 -69 128 -222 108 -186 415 -719 440 -763 10 -19 23 -39 27 -45
4 -5 19 -30 32 -55 14 -25 43 -74 63 -110 21 -36 46 -78 55 -95 9 -16 28 -49
43 -72 15 -24 27 -46 27 -49 0 -4 13 -28 29 -53 28 -45 138 -233 170 -290 52
-94 86 -153 118 -206 20 -33 47 -80 60 -105 14 -25 52 -91 86 -148 52 -89 61
-100 72 -85 6 10 32 54 57 98 25 44 120 208 211 365 90 157 174 301 185 320
24 44 80 140 129 223 20 34 46 80 58 102 23 40 64 112 132 228 20 34 47 82 60
107 14 25 29 50 33 55 4 6 19 30 33 55 13 25 40 73 60 108 45 76 103 176 128
220 11 18 54 93 96 165 225 389 252 440 302 568 39 98 89 319 97 432 l7 87
-282 0 -281 0 0 49 c0 101 -47 285 -102 399 -65 136 -205 305 -318 386 -120
86 -308 167 -425 184 -91 14 -210 21 -260 15z m271 -492 c89 -36 190 -117 242
-194 103 -152 123 -341 55 -507 -35 -87 -70 -136 -140 -200 -208 -190 -540
-182 -739 17 -122 122 -174 277 -153 459 20 180 147 347 319 420 95 40 115 43
230 40 92 -2 115 -6 186 -35z"/>
<path d="M3971 3898 c-1 -12 31 -89 35 -85 3 2 -4 24 -15 48 -11 24 -20 41
-20 37z"/>
</g>
</svg>
