<?xml version="1.0" standalone="no"?>
<!DOCTYPE svg PUBLIC "-//W3C//DTD SVG 20010904//EN"
 "http://www.w3.org/TR/2001/REC-SVG-20010904/DTD/svg10.dtd">
<svg version="1.0" xmlns="http://www.w3.org/2000/svg"
 width="500.000000pt" height="500.000000pt" viewBox="0 0 500.000000 500.000000"
 preserveAspectRatio="xMidYMid meet">

<g transform="translate(0.000000,500.000000) scale(0.100000,-0.100000)"
fill="#000000" stroke="none">
<path d="M2300 4845 c-348 -42 -671 -198 -920 -447 -133 -133 -200 -222 -288
-383 -115 -212 -189 -487 -192 -717 l0 -28 134 0 133 0 6 83 c41 522 365 957
859 1151 294 115 681 110 969 -14 299 -128 543 -351 679 -620 82 -162 131
-337 146 -519 l7 -81 130 0 130 0 -6 128 c-15 357 -194 735 -482 1016 -56 54
-204 170 -256 201 -237 137 -430 204 -665 230 -151 17 -240 17 -384 0z"/>
<path d="M2295 4275 c-85 -18 -178 -52 -260 -93 -308 -153 -521 -456 -564
-801 -15 -116 -21 -111 134 -111 147 0 144 -2 145 75 1 48 34 164 70 240 120
256 389 426 674 426 298 1 562 -165 689 -433 32 -67 67 -206 67 -265 l0 -43
139 0 c77 0 142 3 145 8 9 15 -14 171 -39 258 -81 284 -273 518 -530 647 -38
19 -115 49 -170 67 -95 32 -109 33 -270 36 -114 2 -190 -2 -230 -11z"/>
</g>
</svg>
